<?xml version="1.0" encoding="UTF-8" standalone="no"?>
<svg width="9px" height="14px" viewBox="0 0 9 14" version="1.1" xmlns="http://www.w3.org/2000/svg" xmlns:xlink="http://www.w3.org/1999/xlink">
    <!-- Generator: Sketch 3.7.1 (28215) - http://www.bohemiancoding.com/sketch -->
    <title>icn-arrow</title>
    <desc>Created with Sketch.</desc>
    <defs></defs>
    <g id="Mobile" stroke="none" stroke-width="1" fill="none" fill-rule="evenodd">
        <g id="2-1-Frontend-Test-Project-Mobile" transform="translate(-248.000000, -5450.000000)" fill="#FFFFFF">
            <g id="GET-YOUR" transform="translate(-409.000000, 4667.000000)">
                <g id="Btn-Build-" transform="translate(458.000000, 760.000000)">
                    <g id="icn-arrow" transform="translate(203.357143, 30.000000) rotate(-90.000000) translate(-203.357143, -30.000000) translate(195.857143, 25.500000)">
                        <path d="M14.1464286,0.848571429 C14.665,1.36714286 14.665,2.21285714 14.1464286,2.73142857 C13.6242857,3.25357143 12.7821429,3.25357143 12.2571429,2.73142857 C11.7385714,2.21285714 11.7385714,1.36714286 12.2571429,0.848571429 C12.7821429,0.326428571 13.6242857,0.329285714 14.1464286,0.848571429 L14.1464286,0.848571429 Z" id="Fill-1"></path>
                        <path d="M11.2921429,3.7 C11.8135714,4.22142857 11.8135714,5.06714286 11.2921429,5.58571429 C10.7728571,6.105 9.92714286,6.105 9.40571429,5.58571429 C8.88642857,5.06428571 8.88642857,4.21857143 9.40571429,3.7 C9.92714286,3.17785714 10.7728571,3.17785714 11.2921429,3.7 L11.2921429,3.7 Z" id="Fill-2"></path>
                        <path d="M8.44285714,6.55142857 C8.965,7.07285714 8.965,7.91571429 8.44285714,8.43714286 C7.92142857,8.95642857 7.07571429,8.95642857 6.55714286,8.43714286 C6.035,7.91571429 6.035,7.07285714 6.55714286,6.55142857 C7.07571429,6.03214286 7.92142857,6.03214286 8.44285714,6.55142857 L8.44285714,6.55142857 Z" id="Fill-3"></path>
                        <path d="M8.44285714,0.848571429 C8.965,1.36714286 8.965,2.21285714 8.44285714,2.73142857 C7.92142857,3.25357143 7.07571429,3.25357143 6.55714286,2.73142857 C6.035,2.21285714 6.035,1.36714286 6.55714286,0.848571429 C7.07571429,0.326428571 7.92142857,0.326428571 8.44285714,0.848571429 L8.44285714,0.848571429 Z" id="Fill-4"></path>
                        <path d="M5.59142857,3.7 C6.11357143,4.22142857 6.11357143,5.06714286 5.59142857,5.58571429 C5.07,6.105 4.22428571,6.105 3.70571429,5.58571429 C3.18357143,5.06428571 3.18357143,4.21857143 3.70571429,3.7 C4.22428571,3.17785714 5.07,3.17785714 5.59142857,3.7 L5.59142857,3.7 Z" id="Fill-5"></path>
                        <path d="M2.73714286,0.848571429 C3.25857143,1.36714286 3.25857143,2.21285714 2.73714286,2.73142857 C2.21785714,3.25357143 1.37285714,3.25357143 0.853571429,2.73142857 C0.332142857,2.21285714 0.332142857,1.36714286 0.853571429,0.848571429 C1.37285714,0.326428571 2.21785714,0.326428571 2.73714286,0.848571429 L2.73714286,0.848571429 Z" id="Fill-6"></path>
                    </g>
                </g>
            </g>
        </g>
    </g>
</svg>